# xmcd
#
# Track frame offsets: 
#        150
#        15885
#        28808
#        43247
#        59878
#        76610
#        90152
#        105139
#        121833
#        138152
#        149956
#        166057
#        177354
#        191921
#
# Disc length: 2755 seconds
#
# Revision: 0
# Processed by: cddbd v1.5.2PL0 Copyright (c) Steve Scherf et al.
# Submitted via: ExactAudioCopy v0.99pb5
#
DISCID=b20ac10e
DTITLE=Johnny Cash - Icons [CD4]
DYEAR=2010
DGENRE=Country
TTITLE0=Song Of The Patriot
TTITLE1=I Will Rock And Roll With You
TTITLE2=No Expectations
TTITLE3=The Gambler
TTITLE4=(Ghost) Riders In The Sky
TTITLE5=I'm Gonna Sit On The Porch And Pick On My Old Guitar
TTITLE6=Rockabilly Blues (Texas 1955)
TTITLE7=The Twentieth Century Is Almost Over
TTITLE8=The Baron
TTITLE9=I'm Ragged But I'm Right
TTITLE10=Johnny 99
TTITLE11=Have You Ever Seen The Rain?
TTITLE12=Unwed Fathers
TTITLE13=Casey's Last Ride
EXTD=
EXTT0=
EXTT1=
EXTT2=
EXTT3=
EXTT4=
EXTT5=
EXTT6=
EXTT7=
EXTT8=
EXTT9=
EXTT10=
EXTT11=
EXTT12=
EXTT13=
PLAYORDER=
